{"asset":{"version":"2.0","generator":"Blockbench 5.0.3 glTF exporter"},"scenes":[{"nodes":[13],"name":"blockbench_export"}],"scene":0,"nodes":[{"translation":[0,0.5625,-0.0625],"name":"cabeca"},{"translation":[0.0625,-0.5,0],"name":"cube","mesh":0},{"translation":[0,1.0625,0],"name":"tronco","children":[1]},{"translation":[-0.0625,-0.5,0],"name":"cube","mesh":1},{"translation":[-0.25,1.0625,0],"name":"braco_dir","children":[3]},{"translation":[0,-0.5,0],"name":"cube","mesh":2},{"translation":[0.25,1.0625,0],"name":"braco_esq","children":[5]},{"translation":[-0.0625,-0.5625,0],"name":"cube","mesh":3},{"translation":[-0.0625,0.5625,0],"name":"perna_dir","children":[7]},{"translation":[0,-0.5625,0],"name":"cube","mesh":4},{"translation":[0.0625,0.5625,0],"name":"perna_esq","children":[9]},{"translation":[0.0625,-0.1875,-0.0625],"name":"cube","mesh":5},{"translation":[0,1.3125,0],"name":"tronco2","children":[11]},{"name":"corpo","children":[0,2,4,6,8,10,12]}],"bufferViews":[{"buffer":0,"byteOffset":0,"byteLength":288,"target":34962,"byteStride":12},{"buffer":0,"byteOffset":288,"byteLength":288,"target":34962,"byteStride":12},{"buffer":0,"byteOffset":576,"byteLength":192,"target":34962,"byteStride":8},{"buffer":0,"byteOffset":768,"byteLength":72,"target":34963},{"buffer":0,"byteOffset":840,"byteLength":288,"target":34962,"byteStride":12},{"buffer":0,"byteOffset":1128,"byteLength":288,"target":34962,"byteStride":12},{"buffer":0,"byteOffset":1416,"byteLength":192,"target":34962,"byteStride":8},{"buffer":0,"byteOffset":1608,"byteLength":72,"target":34963},{"buffer":0,"byteOffset":1680,"byteLength":288,"target":34962,"byteStride":12},{"buffer":0,"byteOffset":1968,"byteLength":288,"target":34962,"byteStride":12},{"buffer":0,"byteOffset":2256,"byteLength":192,"target":34962,"byteStride":8},{"buffer":0,"byteOffset":2448,"byteLength":72,"target":34963},{"buffer":0,"byteOffset":2520,"byteLength":288,"target":34962,"byteStride":12},{"buffer":0,"byteOffset":2808,"byteLength":288,"target":34962,"byteStride":12},{"buffer":0,"byteOffset":3096,"byteLength":192,"target":34962,"byteStride":8},{"buffer":0,"byteOffset":3288,"byteLength":72,"target":34963},{"buffer":0,"byteOffset":3360,"byteLength":288,"target":34962,"byteStride":12},{"buffer":0,"byteOffset":3648,"byteLength":288,"target":34962,"byteStride":12},{"buffer":0,"byteOffset":3936,"byteLength":192,"target":34962,"byteStride":8},{"buffer":0,"byteOffset":4128,"byteLength":72,"target":34963},{"buffer":0,"byteOffset":4200,"byteLength":288,"target":34962,"byteStride":12},{"buffer":0,"byteOffset":4488,"byteLength":288,"target":34962,"byteStride":12},{"buffer":0,"byteOffset":4776,"byteLength":192,"target":34962,"byteStride":8},{"buffer":0,"byteOffset":4968,"byteLength":72,"target":34963},{"buffer":0,"byteOffset":5040,"byteLength":12},{"buffer":0,"byteOffset":5052,"byteLength":48},{"buffer":0,"byteOffset":5100,"byteLength":12},{"buffer":0,"byteOffset":5112,"byteLength":48},{"buffer":0,"byteOffset":5160,"byteLength":12},{"buffer":0,"byteOffset":5172,"byteLength":48},{"buffer":0,"byteOffset":5220,"byteLength":12},{"buffer":0,"byteOffset":5232,"byteLength":48},{"buffer":0,"byteOffset":5280,"byteLength":20},{"buffer":0,"byteOffset":5300,"byteLength":80}],"buffers":[{"byteLength":5380,"uri":"data:application/octet-stream;base64,"}],"accessors":[{"bufferView":0,"componentType":5126,"count":24,"max":[0.125,0.5625,0.125],"min":[-0.25,0,-0.0625],"type":"VEC3"},{"bufferView":1,"componentType":5126,"count":24,"max":[1,1,1],"min":[-1,-1,-1],"type":"VEC3"},{"bufferView":2,"componentType":5126,"count":24,"max":[0.375,0.5625],"min":[0,0],"type":"VEC2"},{"bufferView":3,"componentType":5123,"count":36,"max":[23],"min":[0],"type":"SCALAR"},{"bufferView":4,"componentType":5126,"count":24,"max":[0.125,0.5625,0.125],"min":[-0.0625,0,-0.0625],"type":"VEC3"},{"bufferView":5,"componentType":5126,"count":24,"max":[1,1,1],"min":[-1,-1,-1],"type":"VEC3"},{"bufferView":6,"componentType":5126,"count":24,"max":[0.1875,0.5625],"min":[0,0],"type":"VEC2"},{"bufferView":7,"componentType":5123,"count":36,"max":[23],"min":[0],"type":"SCALAR"},{"bufferView":8,"componentType":5126,"count":24,"max":[0.125,0.5625,0.125],"min":[-0.0625,0,-0.0625],"type":"VEC3"},{"bufferView":9,"componentType":5126,"count":24,"max":[1,1,1],"min":[-1,-1,-1],"type":"VEC3"},{"bufferView":10,"componentType":5126,"count":24,"max":[0.1875,0.5625],"min":[0,0],"type":"VEC2"},{"bufferView":11,"componentType":5123,"count":36,"max":[23],"min":[0],"type":"SCALAR"},{"bufferView":12,"componentType":5126,"count":24,"max":[0.125,0.5625,0.125],"min":[-0.0625,0,-0.0625],"type":"VEC3"},{"bufferView":13,"componentType":5126,"count":24,"max":[1,1,1],"min":[-1,-1,-1],"type":"VEC3"},{"bufferView":14,"componentType":5126,"count":24,"max":[0.1875,0.5625],"min":[0,0],"type":"VEC2"},{"bufferView":15,"componentType":5123,"count":36,"max":[23],"min":[0],"type":"SCALAR"},{"bufferView":16,"componentType":5126,"count":24,"max":[0.125,0.5625,0.125],"min":[-0.0625,0,-0.0625],"type":"VEC3"},{"bufferView":17,"componentType":5126,"count":24,"max":[1,1,1],"min":[-1,-1,-1],"type":"VEC3"},{"bufferView":18,"componentType":5126,"count":24,"max":[0.1875,0.5625],"min":[0,0],"type":"VEC2"},{"bufferView":19,"componentType":5123,"count":36,"max":[23],"min":[0],"type":"SCALAR"},{"bufferView":20,"componentType":5126,"count":24,"max":[0.125,0.375,0.28125],"min":[-0.25,0,-0.09375],"type":"VEC3"},{"bufferView":21,"componentType":5126,"count":24,"max":[1,1,1],"min":[-1,-1,-1],"type":"VEC3"},{"bufferView":22,"componentType":5126,"count":24,"max":[0.375,0.375],"min":[0,0],"type":"VEC2"},{"bufferView":23,"componentType":5123,"count":36,"max":[23],"min":[0],"type":"SCALAR"},{"bufferView":24,"componentType":5126,"count":3,"max":[0.8333333134651184],"min":[0],"type":"SCALAR"},{"bufferView":25,"componentType":5126,"count":3,"max":[0.3826834261417389,0,0,1],"min":[-0.3214394748210907,0,0,0.9238795042037964],"type":"VEC4"},{"bufferView":26,"componentType":5126,"count":3,"max":[0.8333333134651184],"min":[0],"type":"SCALAR"},{"bufferView":27,"componentType":5126,"count":3,"max":[0.3826834261417389,0,0,1],"min":[-0.4617486000061035,0,0,0.8870108127593994],"type":"VEC4"},{"bufferView":28,"componentType":5126,"count":3,"max":[0.8333333134651184],"min":[0],"type":"SCALAR"},{"bufferView":29,"componentType":5126,"count":3,"max":[0.2798290252685547,0,0,1],"min":[-0.2798290252685547,0,0,0.9600498676300049],"type":"VEC4"},{"bufferView":30,"componentType":5126,"count":3,"max":[0.8333333134651184],"min":[0],"type":"SCALAR"},{"bufferView":31,"componentType":5126,"count":3,"max":[0.2798290252685547,0,0,1],"min":[-0.2798290252685547,0,0,0.9600498676300049],"type":"VEC4"},{"bufferView":32,"componentType":5126,"count":5,"max":[1],"min":[0],"type":"SCALAR"},{"bufferView":33,"componentType":5126,"count":5,"max":[0.7223639488220215,0.3172018229961395,0,1],"min":[0,-0.003384130774065852,-0.18450409173965454,0.6330048441886902],"type":"VEC4"}],"materials":[{"pbrMetallicRoughness":{"metallicFactor":0,"roughnessFactor":1},"alphaMode":"MASK","alphaCutoff":0.05,"doubleSided":true}],"meshes":[{"primitives":[{"mode":4,"attributes":{"POSITION":0,"NORMAL":1,"TEXCOORD_0":2},"indices":3,"material":0}]},{"primitives":[{"mode":4,"attributes":{"POSITION":4,"NORMAL":5,"TEXCOORD_0":6},"indices":7,"material":0}]},{"primitives":[{"mode":4,"attributes":{"POSITION":8,"NORMAL":9,"TEXCOORD_0":10},"indices":11,"material":0}]},{"primitives":[{"mode":4,"attributes":{"POSITION":12,"NORMAL":13,"TEXCOORD_0":14},"indices":15,"material":0}]},{"primitives":[{"mode":4,"attributes":{"POSITION":16,"NORMAL":17,"TEXCOORD_0":18},"indices":19,"material":0}]},{"primitives":[{"mode":4,"attributes":{"POSITION":20,"NORMAL":21,"TEXCOORD_0":22},"indices":23,"material":0}]}],"animations":[{"name":"andar","samplers":[{"input":24,"output":25,"interpolation":"LINEAR"},{"input":26,"output":27,"interpolation":"LINEAR"},{"input":28,"output":29,"interpolation":"LINEAR"},{"input":30,"output":31,"interpolation":"LINEAR"}],"channels":[{"sampler":0,"target":{"node":4,"path":"rotation"}},{"sampler":1,"target":{"node":6,"path":"rotation"}},{"sampler":2,"target":{"node":8,"path":"rotation"}},{"sampler":3,"target":{"node":10,"path":"rotation"}}]},{"name":"ataque","samplers":[{"input":32,"output":33,"interpolation":"LINEAR"}],"channels":[{"sampler":0,"target":{"node":6,"path":"rotation"}}]}]}